<svg width="50" height="51" viewBox="0 0 50 51" fill="none" xmlns="http://www.w3.org/2000/svg">
<path fill-rule="evenodd" clip-rule="evenodd" d="M25 43.2195L41.6667 35.5076L33.3333 31.5898L25 35.4389V43.2195Z" fill="#2E97D9"/>
<path fill-rule="evenodd" clip-rule="evenodd" d="M41.6667 35.5076L25 43.2194V51L50 39.4391L41.6667 35.5076Z" fill="#1B81BF"/>
<path fill-rule="evenodd" clip-rule="evenodd" d="M25 43.2194L8.33333 35.5075V35.37V15.4649L0 11.5471V39.439L25 51V43.2194Z" fill="#40ACFF"/>
<path fill-rule="evenodd" clip-rule="evenodd" d="M8.33337 35.5074L25 43.2193V35.4387L16.6667 31.5896V19.3964L8.33337 15.4648V35.5074Z" fill="#6EC0FF"/>
<path fill-rule="evenodd" clip-rule="evenodd" d="M8.33333 15.41L25 7.71186L25.0693 7.68437L41.6667 15.41L50 11.5472L25 0L0 11.5472L8.33333 15.465V15.41Z" fill="#BDE2FF"/>
<path fill-rule="evenodd" clip-rule="evenodd" d="M25.0694 7.68433L8.33337 15.4099V15.4649L16.6667 19.3965V19.2727L25.1248 15.3549L33.3334 19.2727L41.6667 15.4099L25.0694 7.68433Z" fill="#D6EDFF"/>
</svg>
